<!-- Generator: Adobe Illustrator 24.1.1, SVG Export Plug-In  -->
<svg version="1.1" xmlns="http://www.w3.org/2000/svg" xmlns:xlink="http://www.w3.org/1999/xlink" x="0px" y="0px" width="60px"
	 height="46px" viewBox="0 0 60 46" style="enable-background:new 0 0 60 46;" xml:space="preserve">
<style type="text/css">
	.st0{fill-rule:evenodd;clip-rule:evenodd;fill:#394D75;}
</style>
<defs>
</defs>
<g id="Page-1_1_">
	<g>
		<g id="Icons_1_" transform="translate(-840.000000, -867.000000)">
			
				<g id="_x34_7--Email--_x28_-shipping_x2C_-transport_x2C_-delivery_x2C_-solid_x29__1_" transform="translate(840.000000, 867.000000)">
				<path id="Fill-8_1_" class="st0" d="M60,5.2C60,4,59.6,2.8,58.8,2L35.9,23.8l23.1,20c0.6-0.8,0.9-1.9,0.9-2.9V5.2z"/>
				<path id="Fill-9_1_" class="st0" d="M26.2,23.1C26.2,23.1,26.2,23.1,26.2,23.1l0.8,0.7c1.7,1.6,4.3,1.6,6,0L57.3,0.7
					C56.5,0.3,55.7,0,54.8,0H5.2C4.1,0,3.1,0.3,2.3,0.9L26.2,23.1z"/>
				<path id="Fill-10_1_" class="st0" d="M0.9,2.3C0.3,3.1,0,4.1,0,5.2v35.6c0,1,0.3,2,0.8,2.8L24,23.8L0.9,2.3z"/>
				<path id="Fill-11_1_" class="st0" d="M34.5,25.2l-0.1,0.1l0,0l0,0l0,0c-1.5,1.4-3.6,2-5.5,1.6c-0.1,0-0.2-0.1-0.4-0.1
					c-0.3-0.1-0.5-0.1-0.8-0.2c-0.4-0.1-0.7-0.3-1.1-0.5c0,0,0,0,0,0c-0.3-0.2-0.7-0.5-1-0.7l-0.1-0.1L2.2,45.1
					c0.8,0.6,1.9,0.9,3,0.9h49.6c1,0,2-0.3,2.8-0.8L34.5,25.2z"/>
			</g>
		</g>
	</g>
</g>
</svg>
